<mxfile host="drawio-plugin" modified="2023-11-14T08:35:57.483Z" agent="5.0 (Windows NT 10.0; Win64; x64) AppleWebKit/537.36 (KHTML, like Gecko) Chrome/111.0.0.0 Safari/537.36" etag="Gtj2ovmGKp7RUqhAAVAJ" version="20.5.3" type="embed"><diagram name="Seite-1" id="ySLmikgtk_-U_fkqz9qH"><mxGraphModel dx="1739" dy="493" grid="1" gridSize="10" guides="1" tooltips="1" connect="1" arrows="1" fold="1" page="1" pageScale="1" pageWidth="827" pageHeight="1169" math="0" shadow="0"><root><mxCell id="0"/><mxCell id="1" parent="0"/><mxCell id="DTIRoB3ybd1M4IkevT6P-1" value="Transformer" style="swimlane;fontStyle=1;align=center;verticalAlign=top;childLayout=stackLayout;horizontal=1;startSize=26;horizontalStack=0;resizeParent=1;resizeParentMax=0;resizeLast=0;collapsible=1;marginBottom=0;whiteSpace=wrap;html=1;" parent="1" vertex="1"><mxGeometry x="90" y="266" width="270" height="104" as="geometry"/></mxCell><mxCell id="DTIRoB3ybd1M4IkevT6P-2" value="+ id: UUID" style="text;strokeColor=none;fillColor=none;align=left;verticalAlign=top;spacingLeft=4;spacingRight=4;overflow=hidden;rotatable=0;points=[[0,0.5],[1,0.5]];portConstraint=eastwest;whiteSpace=wrap;html=1;" parent="DTIRoB3ybd1M4IkevT6P-1" vertex="1"><mxGeometry y="26" width="270" height="26" as="geometry"/></mxCell><mxCell id="DTIRoB3ybd1M4IkevT6P-5" value="+ destination: Destination" style="text;strokeColor=none;fillColor=none;align=left;verticalAlign=top;spacingLeft=4;spacingRight=4;overflow=hidden;rotatable=0;points=[[0,0.5],[1,0.5]];portConstraint=eastwest;whiteSpace=wrap;html=1;" parent="DTIRoB3ybd1M4IkevT6P-1" vertex="1"><mxGeometry y="52" width="270" height="26" as="geometry"/></mxCell><mxCell id="DTIRoB3ybd1M4IkevT6P-4" value="+ transformerActions: List&amp;lt;TransformerAction&amp;gt;" style="text;strokeColor=none;fillColor=none;align=left;verticalAlign=top;spacingLeft=4;spacingRight=4;overflow=hidden;rotatable=0;points=[[0,0.5],[1,0.5]];portConstraint=eastwest;whiteSpace=wrap;html=1;" parent="DTIRoB3ybd1M4IkevT6P-1" vertex="1"><mxGeometry y="78" width="270" height="26" as="geometry"/></mxCell><mxCell id="DTIRoB3ybd1M4IkevT6P-7" value="TransformerAction" style="swimlane;fontStyle=1;align=center;verticalAlign=top;childLayout=stackLayout;horizontal=1;startSize=26;horizontalStack=0;resizeParent=1;resizeParentMax=0;resizeLast=0;collapsible=1;marginBottom=0;whiteSpace=wrap;html=1;" parent="1" vertex="1"><mxGeometry x="90" y="410" width="270" height="78" as="geometry"/></mxCell><mxCell id="DTIRoB3ybd1M4IkevT6P-8" value="+ sourceSubmodelIdentifier: SubmodelIdentifier" style="text;strokeColor=none;fillColor=none;align=left;verticalAlign=top;spacingLeft=4;spacingRight=4;overflow=hidden;rotatable=0;points=[[0,0.5],[1,0.5]];portConstraint=eastwest;whiteSpace=wrap;html=1;" parent="DTIRoB3ybd1M4IkevT6P-7" vertex="1"><mxGeometry y="26" width="270" height="26" as="geometry"/></mxCell><mxCell id="DTIRoB3ybd1M4IkevT6P-9" value="+ actionType: TransformerActionType" style="text;strokeColor=none;fillColor=none;align=left;verticalAlign=top;spacingLeft=4;spacingRight=4;overflow=hidden;rotatable=0;points=[[0,0.5],[1,0.5]];portConstraint=eastwest;whiteSpace=wrap;html=1;" parent="DTIRoB3ybd1M4IkevT6P-7" vertex="1"><mxGeometry y="52" width="270" height="26" as="geometry"/></mxCell><mxCell id="DTIRoB3ybd1M4IkevT6P-12" value="&lt;b&gt;&amp;lt;&amp;lt;Enumeration&amp;gt;&amp;gt;&lt;br&gt;TransformerActionType&lt;/b&gt;" style="swimlane;fontStyle=0;childLayout=stackLayout;horizontal=1;startSize=40;fillColor=none;horizontalStack=0;resizeParent=1;resizeParentMax=0;resizeLast=0;collapsible=1;marginBottom=0;whiteSpace=wrap;html=1;" parent="1" vertex="1"><mxGeometry x="410" y="396" width="170" height="92" as="geometry"/></mxCell><mxCell id="18" value="COPY" style="text;strokeColor=none;fillColor=none;align=left;verticalAlign=top;spacingLeft=4;spacingRight=4;overflow=hidden;rotatable=0;points=[[0,0.5],[1,0.5]];portConstraint=eastwest;whiteSpace=wrap;html=1;" vertex="1" parent="DTIRoB3ybd1M4IkevT6P-12"><mxGeometry y="40" width="170" height="26" as="geometry"/></mxCell><mxCell id="DTIRoB3ybd1M4IkevT6P-13" value="SUBMODEL_TEMPLATE" style="text;strokeColor=none;fillColor=none;align=left;verticalAlign=top;spacingLeft=4;spacingRight=4;overflow=hidden;rotatable=0;points=[[0,0.5],[1,0.5]];portConstraint=eastwest;whiteSpace=wrap;html=1;" parent="DTIRoB3ybd1M4IkevT6P-12" vertex="1"><mxGeometry y="66" width="170" height="26" as="geometry"/></mxCell><mxCell id="DTIRoB3ybd1M4IkevT6P-16" style="edgeStyle=orthogonalEdgeStyle;rounded=0;orthogonalLoop=1;jettySize=auto;html=1;exitX=1;exitY=0.5;exitDx=0;exitDy=0;entryX=0;entryY=0.5;entryDx=0;entryDy=0;endArrow=none;endFill=0;" parent="1" source="DTIRoB3ybd1M4IkevT6P-9" target="DTIRoB3ybd1M4IkevT6P-13" edge="1"><mxGeometry relative="1" as="geometry"/></mxCell><mxCell id="DTIRoB3ybd1M4IkevT6P-19" style="edgeStyle=orthogonalEdgeStyle;rounded=0;orthogonalLoop=1;jettySize=auto;html=1;exitX=1;exitY=0.5;exitDx=0;exitDy=0;endArrow=none;endFill=0;" parent="1" source="DTIRoB3ybd1M4IkevT6P-4" target="DTIRoB3ybd1M4IkevT6P-7" edge="1"><mxGeometry relative="1" as="geometry"/></mxCell><mxCell id="24" value="1" style="edgeLabel;html=1;align=center;verticalAlign=middle;resizable=0;points=[];" vertex="1" connectable="0" parent="DTIRoB3ybd1M4IkevT6P-19"><mxGeometry x="-0.8854" relative="1" as="geometry"><mxPoint x="-3" y="-13" as="offset"/></mxGeometry></mxCell><mxCell id="25" value="0..*" style="edgeLabel;html=1;align=center;verticalAlign=middle;resizable=0;points=[];" vertex="1" connectable="0" parent="DTIRoB3ybd1M4IkevT6P-19"><mxGeometry x="0.866" y="-1" relative="1" as="geometry"><mxPoint x="-14" as="offset"/></mxGeometry></mxCell><mxCell id="2" value="Destination" style="swimlane;fontStyle=1;align=center;verticalAlign=top;childLayout=stackLayout;horizontal=1;startSize=26;horizontalStack=0;resizeParent=1;resizeParentMax=0;resizeLast=0;collapsible=1;marginBottom=0;whiteSpace=wrap;html=1;" vertex="1" parent="1"><mxGeometry x="-290" y="292" width="270" height="78" as="geometry"/></mxCell><mxCell id="3" value="+ aasDestination: DestinationAAS" style="text;strokeColor=none;fillColor=none;align=left;verticalAlign=top;spacingLeft=4;spacingRight=4;overflow=hidden;rotatable=0;points=[[0,0.5],[1,0.5]];portConstraint=eastwest;whiteSpace=wrap;html=1;" vertex="1" parent="2"><mxGeometry y="26" width="270" height="26" as="geometry"/></mxCell><mxCell id="4" value="+ smDestination: DestinationSM" style="text;strokeColor=none;fillColor=none;align=left;verticalAlign=top;spacingLeft=4;spacingRight=4;overflow=hidden;rotatable=0;points=[[0,0.5],[1,0.5]];portConstraint=eastwest;whiteSpace=wrap;html=1;" vertex="1" parent="2"><mxGeometry y="52" width="270" height="26" as="geometry"/></mxCell><mxCell id="6" style="edgeStyle=orthogonalEdgeStyle;rounded=0;orthogonalLoop=1;jettySize=auto;html=1;exitX=0;exitY=0.5;exitDx=0;exitDy=0;endArrow=none;endFill=0;" edge="1" parent="1" source="DTIRoB3ybd1M4IkevT6P-5" target="2"><mxGeometry relative="1" as="geometry"/></mxCell><mxCell id="22" value="1" style="edgeLabel;html=1;align=center;verticalAlign=middle;resizable=0;points=[];" vertex="1" connectable="0" parent="6"><mxGeometry x="-0.2396" relative="1" as="geometry"><mxPoint x="-58" y="-13" as="offset"/></mxGeometry></mxCell><mxCell id="23" value="1" style="edgeLabel;html=1;align=center;verticalAlign=middle;resizable=0;points=[];" vertex="1" connectable="0" parent="6"><mxGeometry x="-0.6674" relative="1" as="geometry"><mxPoint x="9" y="-14" as="offset"/></mxGeometry></mxCell><mxCell id="7" value="DestinationAAS" style="swimlane;fontStyle=1;align=center;verticalAlign=top;childLayout=stackLayout;horizontal=1;startSize=26;horizontalStack=0;resizeParent=1;resizeParentMax=0;resizeLast=0;collapsible=1;marginBottom=0;whiteSpace=wrap;html=1;" vertex="1" parent="1"><mxGeometry x="-320" y="169" width="270" height="104" as="geometry"/></mxCell><mxCell id="10" value="+ identifier: Identifier" style="text;strokeColor=none;fillColor=none;align=left;verticalAlign=top;spacingLeft=4;spacingRight=4;overflow=hidden;rotatable=0;points=[[0,0.5],[1,0.5]];portConstraint=eastwest;whiteSpace=wrap;html=1;" vertex="1" parent="7"><mxGeometry y="26" width="270" height="26" as="geometry"/></mxCell><mxCell id="8" value="+ idShort: DestinationAAS" style="text;strokeColor=none;fillColor=none;align=left;verticalAlign=top;spacingLeft=4;spacingRight=4;overflow=hidden;rotatable=0;points=[[0,0.5],[1,0.5]];portConstraint=eastwest;whiteSpace=wrap;html=1;" vertex="1" parent="7"><mxGeometry y="52" width="270" height="26" as="geometry"/></mxCell><mxCell id="9" value="+ endpoint: String" style="text;strokeColor=none;fillColor=none;align=left;verticalAlign=top;spacingLeft=4;spacingRight=4;overflow=hidden;rotatable=0;points=[[0,0.5],[1,0.5]];portConstraint=eastwest;whiteSpace=wrap;html=1;" vertex="1" parent="7"><mxGeometry y="78" width="270" height="26" as="geometry"/></mxCell><mxCell id="11" value="DestinationSM" style="swimlane;fontStyle=1;align=center;verticalAlign=top;childLayout=stackLayout;horizontal=1;startSize=26;horizontalStack=0;resizeParent=1;resizeParentMax=0;resizeLast=0;collapsible=1;marginBottom=0;whiteSpace=wrap;html=1;" vertex="1" parent="1"><mxGeometry x="-320" y="400" width="270" height="78" as="geometry"/></mxCell><mxCell id="15" value="+ identifier: Identifier" style="text;strokeColor=none;fillColor=none;align=left;verticalAlign=top;spacingLeft=4;spacingRight=4;overflow=hidden;rotatable=0;points=[[0,0.5],[1,0.5]];portConstraint=eastwest;whiteSpace=wrap;html=1;" vertex="1" parent="11"><mxGeometry y="26" width="270" height="26" as="geometry"/></mxCell><mxCell id="12" value="+ idShort: String" style="text;strokeColor=none;fillColor=none;align=left;verticalAlign=top;spacingLeft=4;spacingRight=4;overflow=hidden;rotatable=0;points=[[0,0.5],[1,0.5]];portConstraint=eastwest;whiteSpace=wrap;html=1;" vertex="1" parent="11"><mxGeometry y="52" width="270" height="26" as="geometry"/></mxCell><mxCell id="16" style="edgeStyle=orthogonalEdgeStyle;rounded=0;orthogonalLoop=1;jettySize=auto;html=1;endArrow=none;endFill=0;" edge="1" parent="1" source="4" target="11"><mxGeometry relative="1" as="geometry"><mxPoint x="70" y="341.0000000000001" as="sourcePoint"/><mxPoint x="-9.999999999999773" y="341.0000000000001" as="targetPoint"/><Array as="points"><mxPoint x="-350" y="357"/><mxPoint x="-350" y="439"/></Array></mxGeometry></mxCell><mxCell id="20" value="1" style="edgeLabel;html=1;align=center;verticalAlign=middle;resizable=0;points=[];" vertex="1" connectable="0" parent="16"><mxGeometry x="0.876" y="-2" relative="1" as="geometry"><mxPoint y="-15" as="offset"/></mxGeometry></mxCell><mxCell id="17" style="edgeStyle=orthogonalEdgeStyle;rounded=0;orthogonalLoop=1;jettySize=auto;html=1;endArrow=none;endFill=0;" edge="1" parent="1" source="7" target="2"><mxGeometry relative="1" as="geometry"><mxPoint x="-279.9999999999998" y="366.9999999999999" as="sourcePoint"/><mxPoint x="-309.9999999999998" y="469" as="targetPoint"/><Array as="points"><mxPoint x="-350" y="230"/><mxPoint x="-350" y="331"/></Array></mxGeometry></mxCell><mxCell id="21" value="0..1" style="edgeLabel;html=1;align=center;verticalAlign=middle;resizable=0;points=[];" vertex="1" connectable="0" parent="17"><mxGeometry x="0.7883" y="-1" relative="1" as="geometry"><mxPoint x="-25" y="-115" as="offset"/></mxGeometry></mxCell><mxCell id="26" value="TransformerActionCopy" style="swimlane;fontStyle=1;align=center;verticalAlign=top;childLayout=stackLayout;horizontal=1;startSize=26;horizontalStack=0;resizeParent=1;resizeParentMax=0;resizeLast=0;collapsible=1;marginBottom=0;whiteSpace=wrap;html=1;" vertex="1" parent="1"><mxGeometry x="-40" y="545" width="270" height="78" as="geometry"/></mxCell><mxCell id="27" value="+ sourceSubmodelIdentifier: SubmodelIdentifier" style="text;strokeColor=none;fillColor=none;align=left;verticalAlign=top;spacingLeft=4;spacingRight=4;overflow=hidden;rotatable=0;points=[[0,0.5],[1,0.5]];portConstraint=eastwest;whiteSpace=wrap;html=1;" vertex="1" parent="26"><mxGeometry y="26" width="270" height="26" as="geometry"/></mxCell><mxCell id="28" value="+ actionType: TransformerActionType" style="text;strokeColor=none;fillColor=none;align=left;verticalAlign=top;spacingLeft=4;spacingRight=4;overflow=hidden;rotatable=0;points=[[0,0.5],[1,0.5]];portConstraint=eastwest;whiteSpace=wrap;html=1;" vertex="1" parent="26"><mxGeometry y="52" width="270" height="26" as="geometry"/></mxCell><mxCell id="29" value="TransformerActionSubmodelTemplate" style="swimlane;fontStyle=1;align=center;verticalAlign=top;childLayout=stackLayout;horizontal=1;startSize=26;horizontalStack=0;resizeParent=1;resizeParentMax=0;resizeLast=0;collapsible=1;marginBottom=0;whiteSpace=wrap;html=1;" vertex="1" parent="1"><mxGeometry x="270" y="545" width="270" height="78" as="geometry"/></mxCell><mxCell id="30" value="+ sourceSubmodelIdentifier: SubmodelIdentifier" style="text;strokeColor=none;fillColor=none;align=left;verticalAlign=top;spacingLeft=4;spacingRight=4;overflow=hidden;rotatable=0;points=[[0,0.5],[1,0.5]];portConstraint=eastwest;whiteSpace=wrap;html=1;" vertex="1" parent="29"><mxGeometry y="26" width="270" height="26" as="geometry"/></mxCell><mxCell id="31" value="+ actionType: TransformerActionType" style="text;strokeColor=none;fillColor=none;align=left;verticalAlign=top;spacingLeft=4;spacingRight=4;overflow=hidden;rotatable=0;points=[[0,0.5],[1,0.5]];portConstraint=eastwest;whiteSpace=wrap;html=1;" vertex="1" parent="29"><mxGeometry y="52" width="270" height="26" as="geometry"/></mxCell><mxCell id="32" value="" style="endArrow=block;endSize=16;endFill=0;html=1;rounded=0;exitX=0.5;exitY=0;exitDx=0;exitDy=0;edgeStyle=orthogonalEdgeStyle;" edge="1" parent="1" source="26" target="DTIRoB3ybd1M4IkevT6P-7"><mxGeometry width="160" relative="1" as="geometry"><mxPoint y="510" as="sourcePoint"/><mxPoint x="160" y="510" as="targetPoint"/></mxGeometry></mxCell><mxCell id="33" value="" style="endArrow=block;endSize=16;endFill=0;html=1;rounded=0;edgeStyle=orthogonalEdgeStyle;" edge="1" parent="1" source="29" target="DTIRoB3ybd1M4IkevT6P-7"><mxGeometry width="160" relative="1" as="geometry"><mxPoint x="145" y="555" as="sourcePoint"/><mxPoint x="235.02222222222235" y="498" as="targetPoint"/></mxGeometry></mxCell></root></mxGraphModel></diagram></mxfile>